<!DOCTYPE svg PUBLIC "-//W3C//DTD SVG 1.1//EN" "http://www.w3.org/Graphics/SVG/1.1/DTD/svg11.dtd">
<!-- Uploaded to: SVG Repo, www.svgrepo.com, Transformed by: SVG Repo Mixer Tools -->
<svg fill="#ffffff" width="800px" height="800px" viewBox="-6.5 0 32 32" version="1.1" xmlns="http://www.w3.org/2000/svg" stroke="#ffffff">
<g id="SVGRepo_bgCarrier" stroke-width="0"/>
<g id="SVGRepo_tracerCarrier" stroke-linecap="round" stroke-linejoin="round"/>
<g id="SVGRepo_iconCarrier"> <title>phone</title> <path d="M13.8 25.52c-3.12 0-6.48-2.72-8.76-4.96-1.96-1.92-5.12-5.64-5.040-8.96 0.040-1.4 0.64-2.56 1.76-3.52 1.28-1.080 2.28-1.6 3.16-1.6 1.24 0 1.92 0.96 2.36 1.6 0.4 0.6 1.4 2.080 1.8 2.84 0.64 1.2 0.32 2.28-0.92 3.24-0.080 0.040-0.080 0.080-0.12 0.12-0.040 0.36 0.84 1.24 1.24 1.6l0.4 0.4c0.4 0.4 1.2 1.24 1.6 1.24 0.040 0 0.12-0.080 0.12-0.12 0.64-0.84 1.32-1.24 2.080-1.24 0.48 0 0.88 0.16 1.16 0.32 0.76 0.4 2.24 1.4 2.84 1.8 0.56 0.4 1.44 1 1.6 2.040 0.12 0.96-0.36 2.040-1.56 3.48-1.040 1.16-2.28 1.72-3.72 1.72v0zM4.96 8.12c-0.24 0-0.84 0.16-2.080 1.2-0.76 0.64-1.16 1.4-1.2 2.32-0.080 2 1.56 4.8 4.48 7.72 2.84 2.84 5.6 4.48 7.6 4.48v0c0.96 0 1.8-0.4 2.48-1.2 1.12-1.32 1.24-1.92 1.2-2.16-0.040-0.28-0.32-0.52-0.88-0.88-0.44-0.32-1.96-1.32-2.68-1.72-0.12-0.080-0.24-0.12-0.36-0.12-0.2 0-0.48 0.2-0.76 0.6-0.48 0.64-1.040 0.76-1.44 0.76v0c-1.080 0-2.040-0.96-2.8-1.72l-0.36-0.36c-0.8-0.8-1.8-1.76-1.72-2.88 0.040-0.36 0.16-0.88 0.76-1.32 0.76-0.56 0.64-0.8 0.48-1.12-0.4-0.72-1.4-2.24-1.72-2.68-0.48-0.68-0.72-0.92-1-0.92z"/> </g>
</svg>